REM FLAC__lead-in 88200
REM FLAC__lead-out 170 211680000
CATALOG 1234567890123
FILE "z.wav" WAVE
  TRACK 01 AUDIO
    FLAGS PRE
    INDEX 01 00:00:00
  TRACK 02 AUDIO
    FLAGS PRE
    ISRC ABCDE7654321
    INDEX 00 02:09:12
    INDEX 01 02:10:15
    INDEX 02 02:20:15
    INDEX 03 02:30:15
    INDEX 04 03:30:15
    INDEX 05 03:31:15
    INDEX 06 03:32:06
    INDEX 07 03:32:07
    INDEX 08 03:32:08
    INDEX 09 03:32:09
    INDEX 10 03:32:10
    INDEX 11 03:32:11
    INDEX 12 03:32:12
    INDEX 13 03:32:13
    INDEX 14 03:32:14
    INDEX 15 03:32:15
    INDEX 16 03:32:16
    INDEX 17 03:32:17
    INDEX 18 03:32:18
    INDEX 19 03:32:19
    INDEX 20 03:32:20
    INDEX 21 03:32:21
    INDEX 22 03:32:22
    INDEX 23 03:32:23
    INDEX 24 03:32:24
    INDEX 25 03:32:25
    INDEX 26 03:32:26
    INDEX 27 03:32:27
    INDEX 28 03:32:28
    INDEX 29 03:32:29
    INDEX 30 03:32:30
    INDEX 31 03:32:31
    INDEX 32 03:32:32
    INDEX 33 03:32:33
    INDEX 34 03:32:34
    INDEX 35 03:32:35
    INDEX 36 03:32:36
    INDEX 37 03:32:37
    INDEX 38 03:32:38
    INDEX 39 03:32:39
    INDEX 40 03:32:40
    INDEX 41 03:32:41
    INDEX 42 03:32:42
    INDEX 43 03:32:43
    INDEX 44 03:32:44
    INDEX 45 03:32:45
    INDEX 46 03:32:46
    INDEX 47 03:32:47
    INDEX 48 03:32:48
    INDEX 49 03:32:49
    INDEX 50 03:32:50
    INDEX 51 03:32:51
    INDEX 52 03:32:52
    INDEX 53 03:32:53
    INDEX 54 03:32:54
    INDEX 55 03:32:55
    INDEX 56 03:32:56
    INDEX 57 03:32:57
    INDEX 58 03:32:58
    INDEX 59 03:32:59
    INDEX 60 03:32:60
    INDEX 61 03:32:61
    INDEX 62 03:32:62
    INDEX 63 03:32:63
    INDEX 64 03:32:64
    INDEX 65 03:32:65
    INDEX 66 03:32:66
    INDEX 67 03:32:67
    INDEX 68 03:32:68
    INDEX 69 03:32:69
    INDEX 70 03:40:50
    INDEX 71 03:40:51
    INDEX 72 03:40:52
    INDEX 73 03:40:53
    INDEX 74 03:40:54
    INDEX 75 03:40:55
    INDEX 76 03:40:56
    INDEX 77 03:40:57
    INDEX 78 03:40:58
    INDEX 79 03:40:59
    INDEX 80 03:41:50
    INDEX 81 03:41:51
    INDEX 82 03:41:52
    INDEX 83 03:41:53
    INDEX 84 03:41:54
    INDEX 85 03:41:55
    INDEX 86 03:41:56
    INDEX 87 03:41:57
    INDEX 88 03:41:58
    INDEX 89 03:41:59
    INDEX 90 03:42:50
    INDEX 91 03:42:51
    INDEX 92 03:42:52
    INDEX 93 03:42:53
    INDEX 94 03:42:54
    INDEX 95 03:42:55
    INDEX 96 03:42:56
    INDEX 97 03:42:57
    INDEX 98 03:42:58
    INDEX 99 03:42:59
  TRACK 03 AUDIO
    ISRC AB-CD7-65-43210
    INDEX 00 04:50:12
    INDEX 01 04:51:72
  TRACK 04 AUDIO
    INDEX 00 06:36:10
    INDEX 01 06:38:47
  TRACK 05 AUDIO
    INDEX 00 08:34:45
    INDEX 01 08:36:15
  TRACK 06 AUDIO
    INDEX 00 13:20:22
    INDEX 01 13:22:12
  TRACK 07 AUDIO
    INDEX 00 16:08:20
    INDEX 01 16:11:17
  TRACK 08 AUDIO
    INDEX 01 17:48:37
  TRACK 09 AUDIO
    INDEX 00 19:38:17
    INDEX 01 19:39:30
  TRACK 10 AUDIO
    INDEX 00 22:07:07
    INDEX 01 22:08:20
  TRACK 11 AUDIO
    INDEX 01 24:16:45
  TRACK 12 AUDIO
    INDEX 01 26:13:67
  TRACK 13 AUDIO
    INDEX 01 28:03:27
  TRACK 14 AUDIO
    INDEX 00 30:22:42
    INDEX 01 30:24:45
  TRACK 15 AUDIO
    INDEX 00 34:06:22
    INDEX 01 34:07:62
  TRACK 16 AUDIO
    INDEX 00 35:54:30
    INDEX 01 35:56:60
  TRACK 17 AUDIO
    INDEX 00 38:49:10
    INDEX 01 38:51:22
  TRACK 18 AUDIO
    INDEX 00 41:14:15
    INDEX 01 41:17:15
  TRACK 19 AUDIO
    INDEX 00 44:27:15
    INDEX 01 44:28:45
  TRACK 20 AUDIO
    INDEX 00 48:07:17
    INDEX 01 48:09:72
  TRACK 21 AUDIO
    INDEX 00 50:48:05
    INDEX 01 50:49:27
  TRACK 22 AUDIO
    INDEX 00 53:29:72
    INDEX 01 53:31:20
  TRACK 23 AUDIO
    INDEX 00 57:57:60
    INDEX 01 58:00:40
  TRACK 24 AUDIO
    INDEX 00 61:52:65
    INDEX 01 61:55:37
  TRACK 25 AUDIO
    INDEX 00 65:07:50
    INDEX 01 65:10:52
  TRACK 26 AUDIO
    INDEX 00 68:30:05
    INDEX 01 68:32:45
  TRACK 27 AUDIO
    INDEX 01 71:45:17
  TRACK 28 AUDIO
    INDEX 00 74:49:07
    INDEX 01 74:51:47
